<?xml version="1.0" encoding="utf-8"?>
<!-- Generator: Adobe Illustrator 24.3.0, SVG Export Plug-In . SVG Version: 6.00 Build 0)  -->
<svg version="1.1" id="Layer_1" xmlns="http://www.w3.org/2000/svg" xmlns:xlink="http://www.w3.org/1999/xlink" x="0px" y="0px"
	 viewBox="0 0 810 650" style="enable-background:new 0 0 810 650;" xml:space="preserve">

<g>
	<path style="fill:#FFFFFF;" d="M698.11,145.56c-21.78-22.24-107.2-88.6-150.98-110.05C504.16,14.46,457.05,3.33,410.86,3.33
		c-46.18,0-93.29,11.13-136.25,32.19c-43.76,21.44-129.21,87.8-151,110.05c-23.84,24.34-37.5,58.72-37.5,94.32v168.62
		c0,35.61,13.67,69.99,37.5,94.33c21.78,22.23,107.21,88.57,151,110.04c42.98,21.05,90.09,32.19,136.25,32.19
		c46.17,0,93.28-11.13,136.26-32.19c43.81-21.48,129.23-87.82,150.99-110.05c23.84-24.35,37.51-58.73,37.51-94.33V239.88
		C735.62,204.28,721.95,169.91,698.11,145.56z M160.12,181.33c19.42-19.83,99.53-81.57,136.98-99.92
		c35.99-17.65,75.32-26.98,113.75-26.98s77.77,9.33,113.77,26.98c37.46,18.35,117.56,80.09,136.97,99.91
		c14.56,14.88,22.92,36.22,22.92,58.56v29.41c0,25.57-11.72,49.71-31.75,65.59C561.5,407.25,495.81,456.07,473.66,467.8
		c-18.09,9.58-39.78,14.65-62.75,14.65c-0.04,0-0.06,0-0.1,0c-21.55,0-43.48-5.18-63.44-15c-21.19-10.42-90.1-63.5-98.75-71.76
		c-0.57-0.56-0.66-1.27-0.63-1.76c0.06-1.04,0.66-1.5,0.92-1.7l47.62-36.01l54.07,40.89c17.74,13.42,38.99,20.13,60.25,20.13
		c21.25,0,42.51-6.71,60.24-20.13l96.46-72.93l0,0l34.9-26.39c8.47-6.4,15.44-14.85,19.06-24.83c7.44-20.49,2.01-42.52-12.77-56.89
		c-9.13-8.89-83.63-67.13-111.87-81.01c-26.94-13.25-56.69-20.24-86.03-20.24c-31.29,0-61.28,7.12-86.72,20.59
		c-31.98,16.94-118.85,84.05-186.93,138.04v-33.57C137.21,217.53,145.56,196.19,160.12,181.33z M338.9,324.19l42.53-32.17
		c17.33-13.1,41.52-13.08,58.85,0l42.54,32.17l-42.55,32.17c-17.41,13.16-41.44,13.16-58.84,0L338.9,324.19z M661.6,467.08
		c-19.4,19.81-99.49,81.54-136.97,99.91c-36.02,17.65-75.36,26.98-113.77,26.98s-77.75-9.33-113.76-26.98
		c-37.46-18.36-117.56-80.1-136.97-99.91c-14.56-14.87-22.91-36.22-22.91-58.57v-29.4c0-25.56,11.72-49.7,31.75-65.59
		c91.24-72.36,156.92-121.18,179.1-132.92c35.09-18.59,85.04-19.92,126.28,0.34c21.22,10.44,90.12,63.52,98.76,71.78
		c0.57,0.55,0.65,1.25,0.63,1.74c-0.06,1.05-0.68,1.52-0.92,1.7l-47.62,36.01l-54.09-40.9c-35.65-26.95-84.86-26.95-120.5,0
		l-96.43,72.92l0.01,0.01l-34.83,26.33c-8.49,6.42-15.48,14.86-19.12,24.86c-7.48,20.5-2.04,42.52,12.75,56.93
		c9.14,8.89,83.65,67.14,111.86,81c26.92,13.25,56.66,20.24,85.97,20.24c0.04,0,0.1,0,0.14,0c31.25,0,61.21-7.12,86.65-20.59
		c31.93-16.91,118.83-84.03,186.94-138.03v33.57C684.52,430.85,676.16,452.2,661.6,467.08z"/>
	<g>
		<path class="st0" d="M65.73,804.33C25.4,804.33,5,832.37,5,865.5c0,33.14,20.4,61.17,60.73,61.17s60.73-28.03,60.73-61.17
			C126.45,832.37,106.06,804.33,65.73,804.33z M65.73,902.94c-23.2,0-34.94-18.38-34.94-37.44s11.73-37.44,34.94-37.44
			s34.94,18.38,34.94,37.44S88.93,902.94,65.73,902.94z"/>
		<path class="st0" d="M615.09,804.33c-40.33,0-60.73,28.03-60.73,61.17c0,33.14,20.4,61.17,60.73,61.17s60.73-28.03,60.73-61.17
			C675.82,832.37,655.42,804.33,615.09,804.33z M615.09,902.94c-23.2,0-34.94-18.38-34.94-37.44s11.73-37.44,34.94-37.44
			s34.94,18.38,34.94,37.44S638.29,902.94,615.09,902.94z"/>
		<path class="st0" d="M216.31,902.94c-23.2,0-38.84-18.38-38.84-37.44s11.73-37.44,34.94-37.44c14.98,0,26.57,7.44,32.54,16.98
			l2.47-1.85v-29.3c-8.73-4.83-22.31-9.56-35-9.56c-40.33,0-60.73,28.03-60.73,61.17s24.3,61.17,64.63,61.17
			c12.69,0,27.11-4.17,35.42-9.22v-30.23l-2.39-1.79C243.57,894.55,230.35,902.94,216.31,902.94z"/>
		<path class="st0" d="M478.76,804.35c-18.54,0-32.48,1.16-46.04,1.16h-3.89c0,0,0.38,14.8,0.38,60s-0.38,60-0.38,60h25.79
			c0,0-0.18-7.13-0.3-26.57c4.56,0.52,10.77,0.98,18.69,0.98c34.83,0,56.4-16.37,56.4-48.48
			C529.42,825.12,511.66,804.35,478.76,804.35z M473.91,876.93c-7.38,0-14.38-0.54-19.66-1.1c0-3.26-0.01-6.68-0.01-10.33
			c0-15.7,0.05-27.72,0.11-36.74c3.9-0.94,9.48-1.83,16.7-1.83c26.34,0,33.35,9.54,33.35,24.99
			C504.4,864.87,496.07,876.93,473.91,876.93z"/>
		<path class="st0" d="M754.34,804.35c-18.54,0-32.48,1.16-46.04,1.16h-3.89c0,0,0.38,14.8,0.38,60s-0.38,60-0.38,60h25.79
			c0,0-0.18-7.13-0.3-26.57c4.56,0.52,10.77,0.98,18.69,0.98c34.83,0,56.4-16.37,56.4-48.48C805,825.12,787.24,804.35,754.34,804.35
			z M749.49,876.93c-7.38,0-14.38-0.54-19.66-1.1c0-3.26-0.01-6.68-0.01-10.33c0-15.7,0.05-27.72,0.11-36.74
			c3.9-0.94,9.48-1.83,16.7-1.83c26.34,0,33.35,9.54,33.35,24.99C779.98,864.87,771.65,876.93,749.49,876.93z"/>
		<path class="st0" d="M392.37,805.5h-25.79c0,0,0.38,14.8,0.38,60c0,24.1-8.95,37.44-28.9,37.44c-19.95,0-28.9-13.34-28.9-37.44
			c0-45.2,0.38-60,0.38-60h-25.79c0,0,0.19,14.8,0.19,60l0,0c0,0,0,0,0,0c0,33.14,13.78,61.17,54.11,61.17s54.11-28.03,54.11-61.17
			c0,0,0,0,0,0l0,0C392.17,820.3,392.37,805.5,392.37,805.5z"/>
	</g>
</g>
</svg>
